# xmcd
#
# Track frame offsets: 
#        150
#        12245
#        26000
#        38245
#        56582
#        74132
#        84612
#        101712
#        113195
#        124015
#        136485
#        148967
#        162540
#        174802
#        189052
#        206935
#        220285
#        233245
#        253490
#
# Disc length: 3619 seconds
#
# Revision: 5
# Processed by: cddbd v1.5.2PL0 Copyright (c) Steve Scherf et al.
# Submitted via: ExactAudioCopyFreeDBPlugin 1.0
#
DISCID=250e2113
DTITLE=Kris Kristofferson - Kris Kristofferson Songwriter
DYEAR=1991
DGENRE=Country
TTITLE0=Vietnam Blues (Dave Dudley)
TTITLE1=Jody And The Kid (Roy Drusky)
TTITLE2=From The Bottle To The Bottom (Billy Walker)
TTITLE3=Sunday Morning Coming Down (Johnny Cash)
TTITLE4=Me And Bobby McGee (roger Miller)
TTITLE5=The Taker (Waylon Jennings)
TTITLE6=For The Good Times (Ray Price)
TTITLE7=Help Me Make IT Through The Night (Sammi Smith)
TTITLE8=Once More With Feeling (Jerry Lee Lewis)
TTITLE9=Come Sundown (Bobby Bare)
TTITLE10=I'd Rather Be Sorry Ray Price)
TTITLE11=Nobody Wins (Branda Lee)
TTITLE12=Please Don't Tell Me How The Story Ends (Ronnie Milsap)
TTITLE13=Stranger (Johnny Duncan)
TTITLE14=Help Me Make It Through The Night (Willie Nelson)
TTITLE15=Loving Her Was Easier (Tompall Glaser)
TTITLE16=If You Don't Like Hank Williams (Hank Williams)
TTITLE17=Me And Bobby McGee (Janis Joplin)
TTITLE18=They Killed Him (Bob Dylan)
EXTD=YEAR: 1991
EXTT0=
EXTT1=
EXTT2=
EXTT3=
EXTT4=
EXTT5=
EXTT6=
EXTT7=
EXTT8=
EXTT9=
EXTT10=
EXTT11=
EXTT12=
EXTT13=
EXTT14=
EXTT15=
EXTT16=
EXTT17=
EXTT18=
PLAYORDER=
